<svg version="1" xmlns="http://www.w3.org/2000/svg" width="1509.333" height="1509.333" viewBox="0 0 1132.000000 1132.000000"><path d="M551 74.1c-1.9.5-4.4 1-5.5 1.3-20.3 4.2-44.4 20.6-54.4 37-7.5 12.5-11 29.5-10.6 51.4.3 11.8.6 15.1 2.1 22.4.6 3 .3 3.1-5.3 2.8-2.7-.1-3.3.3-3.9 2.5-1.6 6.4 3.1 32.6 8.5 47.5 2.5 6.9 3.1 7.6 6.7 9 3.2 1.2 4 2.1 4.2 4.5 1.7 14.5 7.4 35.5 10.9 39.6 3.3 3.9 3.7 21 .8 32.4-1.1 4.4-5 11.7-8.1 15.4-3.2 3.9-14.5 11.4-22.2 14.8-15.1 6.7-28.9 11.2-59.2 18.9-24.6 6.4-33.2 9.5-41.3 14.8-10.8 7.1-18.9 18.8-21.7 31.1-.7 2.8-1.4 5.9-1.6 7-.9 3.9-5.3 31.1-5.9 36.5-.3 3-.8 7.1-1 9-.2 1.9-.7 6.4-1 10-.3 3.6-.8 8.1-1 10-.2 1.9-.7 6.4-1 10-.3 3.6-.7 9-1 12-.3 3-.7 8.4-1 12-.3 3.6-.8 8.5-1.1 11-.2 2.5-.7 7.4-.9 10.8-.4 6.5-1.4 17.4-2.1 22.7-.2 1.6-.6 5.9-.9 9.5-.3 3.6-.8 8.1-1 10-.3 1.9-.7 5.2-1 7.2-.8 5.9-1.5 10.8-2.5 17.3-.5 3.3-1.2 8-1.5 10.5-.5 3.8-2.9 17.2-4.9 27-.3 1.4-1.2 5.2-2.1 8.5-.9 3.3-2 7.7-2.5 9.7-1.4 5.3-6.5 17.8-9.6 23.6-3.5 6.5-9.6 13.7-26.8 31.2-23.1 23.6-36 40.2-44.7 57.3-9.4 18.7-29.3 39.4-53.9 56.2-16.9 11.5-23.2 13-33.8 8-16.1-7.7-32.2-13.4-42.6-15.1-2.2-.3-4.9-.9-6-1.3-4.5-1.6-11.4-1.3-15.5.8-5.3 2.7-11.6 4.8-17 5.7-9.9 1.6-10.4 9.2-.8 13.3l3.8 1.6-6.4 3.7-6.3 3.6-3.8 11.6c-2 6.4-3.9 12.5-4.1 13.6-.2 1.1-.6 2.3-.8 2.8-.7 1-1.9 8.3-1.9 10.6.1 2.8 3.1 5.4 17.8 16 14.6 10.6 16 12.6 9.7 15.2-2.1.9-6.7 3-10.3 4.6-14.2 6.6-23 8.5-30.5 6.4-1.1-.3-4.7-1.2-8-2s-8.5-2.3-11.5-3.4c-6.4-2.2-11.4-2.2-13.7 0-2.2 2.3-1 7.6 2.7 11.6 3.5 3.9 13.2 9.2 16.6 9.2 2.9 0 3.1 1.1.4 2.8-2.7 1.6-2.5 4.8.2 6.4 3.1 1.6 40.8 2.2 46.3.7 2.2-.6 10.3-3.3 18-6.1 7.7-2.8 15.8-5.2 18-5.4 6.1-.6 10-2.1 22-8.4 10.6-5.6 32.5-15.4 33-14.8.2.2-1.9 2.7-4.6 5.6-26.6 28.7-29.4 55.9-8.7 84 5.8 7.8 15.5 17.9 21.6 22.4 10.6 7.9 26.6 13.7 41.7 15.3 3.3.4 7.6.8 9.5 1.1 1.9.2 12.7.4 24 .4 19.6 0 31-.3 55.5-1.5 6.1-.3 17.3-.7 25-1 21.3-.8 34.6-1.5 38.5-2 1.9-.2 7-.7 11.2-1 4.2-.3 8.6-.8 9.7-1 1.1-.2 4.6-.6 7.8-1 3.2-.3 6.9-.7 8.3-1 1.4-.2 4.3-.7 6.5-1 10.4-1.5 18.3-2.9 34-6.1 9.4-1.9 18.3-3.7 19.8-4 2.1-.4 39.3-10.2 48.7-12.8 6.5-1.9 32.1-10.4 43.7-14.5 7.8-2.8 14.7-5.1 15.5-5.1.7 0 4.7 1.3 8.8 2.9 20.8 7.9 66.5 22.1 79 24.6.8.2 3.5.8 6 1.5s5.2 1.4 6 1.6c13.7 3.1 29.3 6.4 32 6.9 1.9.3 4.2.8 5 1 .8.2 3.3.7 5.5 1 2.3.3 5.2.7 6.5 1 1.3.3 4.2.7 6.5 1 2.2.3 4.7.8 5.5 1 .8.2 3.8.6 6.5 1 5.9.6 13.4 1.6 15.6 2 .9.2 5.6.6 10.5 1s9.8.9 10.8 1.1c1.1.2 8.1.6 15.5.9 7.5.3 17.2.7 21.6 1 4.4.2 15.9.7 25.5 1 9.6.4 20.2.9 23.5 1 9.9.5 52.7.6 56.5.1 1.9-.2 6.5-.7 10.2-1.1 9.7-.9 24.1-5 31.7-9 9.5-5 17-11.3 25.3-21.1 11.1-12.9 17.1-23.7 19.4-34.5.7-3.4.7-14.8 0-18.4-2.5-13.3-11.3-28.4-23.7-40.8-4.9-4.8-5.2-5.4-2.1-3.8 2.6 1.4 11.1 5.1 11.7 5.1.9 0 17.9 8.3 22.5 11 6.1 3.6 14.4 6.6 20.5 7.5 2.8.4 11 2.9 18.3 5.6 7.4 2.7 14.6 5.2 16 5.6 4.1 1 43.4 1.1 46.3.1 3.7-1.3 4.3-4.5 1.4-7.2l-2.3-2.2 2.6-.2c4.3-.3 12.4-4.8 16.7-9.1 3-3.2 3.9-4.9 3.9-7.6 0-1.9-.5-4-1.1-4.6-1.6-1.6-6.4-1.8-11.3-.2-11 3.3-23.9 6.5-27.9 6.7-5.3.4-13.3-2-24.7-7.4-4.7-2.2-8.8-4-9.2-4-.4 0-1.8-.7-3-1.6-3.3-2.3-1.7-4.2 10.1-12.5 16-11.3 19.7-14.7 19.7-17.8 0-3.2-2.3-12.2-7-27.3l-3.3-10.7-6.5-3.7-6.5-3.8 4.2-1.8c4.7-2 7.6-6.9 6-10-.9-1.6-2.3-2.1-11.9-4.2-1.9-.4-6.6-2.1-10.3-3.8-5.9-2.6-7.7-3-12.6-2.5-3.1.3-7 1.1-8.6 1.7-1.7.6-3.1 1.1-3.3 1-.1-.1-2.1.1-4.5.5-6.1 1.1-20.1 6.2-36.1 13.3-7 3.2-9.7 3.9-12.9 3.5-6-.7-16.1-6.2-30.2-16.5-18.8-13.7-36.9-33.7-45.6-50.3-10.7-20.5-20.4-32.7-53.8-67-14.6-15.1-18.4-20.8-24.4-37-3.7-9.9-8.9-30.4-10.2-39.9-.1-1.2-.8-5-1.4-8.6-.6-3.6-1.3-7.6-1.5-9-.3-1.4-.7-4.3-1-6.5-.3-2.2-.9-7.2-1.5-11-.5-3.9-1.3-9.7-1.6-13-.4-3.3-.8-7.1-1-8.5-.2-1.4-.7-5.9-1-10-.3-4.1-.8-8.6-1-10-.2-1.4-.6-5.9-1-10-.3-4.1-.8-9.5-1-12-.2-2.5-.7-7.7-1-11.5-.3-3.9-.8-9.5-1-12.5-.3-3-.7-8.4-1-12-.3-3.6-.8-8.1-1-10-.2-1.9-.7-6.4-1-10-.7-7.9-1.3-12.9-4.1-34.5-.9-7.5-4.5-26-6.1-31.5-5.2-18.2-17.7-30.7-37.6-37.5-4.3-1.4-30.3-8.3-34.6-9.1-1.4-.3-2.8-.7-3.3-1-.5-.3-2.1-.8-3.5-1-4.5-.8-23.3-6.9-33.6-10.8-14.2-5.4-26.4-12.9-31.9-19.4-6.2-7.4-9.5-18.9-9.4-32.7.1-8.4.4-9.5 4.2-17.5 3.7-7.6 5.2-12.3 6.8-22.5.3-1.7.7-4 1-5.2.9-4 2-11.8 1.8-12.6-.1-.4.3-.7 1-.6 2.8.3 4.7-.2 6.2-1.6 3.6-3.6 11-32.5 12.2-47.2.7-8.8-.2-10.6-5.5-10.1-4.1.3-3.9 1.6-2.4-15.7 2-21.2-.5-40.9-6.8-55-7.9-17.7-29.9-35.1-53.4-42.1-7.5-2.2-11.3-2.7-22.5-2.9-7.4-.2-15.1.1-17 .6zM426.5 623.4c.4 1.1 2.9 18 4 27.1.4 2.7.8 6.1 1.1 7.5.2 1.4.9 6.3 1.4 11 .6 4.7 1.3 9.6 1.5 11 .4 2.9 1.7 13.8 1.8 16 1 13.1-12.9 50.4-41.5 112-6.5 14-11.1 23-11.8 23-.3 0-1-.4-1.5-.9-.6-.4-2.3-1.3-4-1.9-1.6-.6-5.3-1.9-8.1-3-19-7.2-38.3-4.6-45.9 6.1-2.6 3.6-3 5.1-3 10.7 0 4.2.6 7.7 1.8 9.9 2.2 4.4 2.2 4.7-.5 4.7-2.9.1-21.9 1.4-27.3 1.9-2.2.2-7 .6-10.7 1-14.8 1.4-28.3 5.1-35.9 9.8-1.5.9-2.2.9-3.3-.3-1.3-1.3.2-2.7 11.6-11.5 56.3-43.2 83.9-69.3 102.9-97 15.9-23.3 32.4-60.1 38.4-85.5 2.4-10.3 3.5-14.9 3.9-17 .5-3 6.4-30.6 7.1-33.6.4-2 1.1-2.2 9.1-2.2 5.4 0 8.7.5 8.9 1.2zm297.5 4c.6 2.8 1.3 6.2 1.6 7.6.5 2.6 3.2 15.8 4 19.7 5.2 26.4 13.4 50.6 24.9 73.8 7.9 16 10.6 20.8 11.8 21.3.4.2.7.8.7 1.4 0 3.1 20.6 30 31.2 40.8 15 15.2 44.5 40.2 77 65.2 11.1 8.6 13.5 10.8 12.3 11.8-1 .9-2.3.7-5.7-.8-12.4-5.6-20.2-7.6-34.8-8.8-4.7-.3-9.6-.8-11-1-1.4-.2-7.4-.6-13.4-1-6-.3-11.7-.8-12.5-.9-.9-.2-1.9-.4-2.3-.4-.4-.1.2-1.6 1.3-3.5 2.9-5 3.4-12.8 1-18-2.9-6-4.2-7.3-10.7-10.3-5.2-2.5-7-2.8-15.9-2.8-10.6.1-18.5 1.9-29.9 7l-5.7 2.5-5.3-11.3c-8.3-17.2-13.5-28.4-17.3-37.2-1.9-4.4-4.8-10.8-6.4-14.3-1.6-3.5-2.9-6.9-2.9-7.6 0-.6-.4-1.6-.9-2.1-1.4-1.6-12.8-31.5-16.1-42.6-1.9-6.1-3.2-12.9-3.3-16.4-.1-5.6.9-18.2 1.8-21.5.2-.8.6-3.5.9-6 1.2-9.6 3.6-27.6 4-29.5.2-1.1.7-4.5 1-7.5.4-3 .8-6.4 1.1-7.5.2-1.1.4-2.7.4-3.6.1-1.3 1.6-1.6 9.1-1.6l8.9-.1 1.1 5.2zM102.6 852.5c6.8 2 10.1 4.8 11.5 9.5 1 3.4.9 4.6-.9 8.7-1.1 2.6-2.6 9.2-3.3 14.7-1.5 11.2-1.8 11.6-10.8 13.6-9.7 2.3-19.8-.4-26.9-7.1-2-1.8-2.3-2.8-1.9-6.8 1-9.5 1.7-10.7 9.9-19.6 6.8-7.3 8.8-10.4 8.8-13.4 0-2.2.3-2.3 4.3-1.8 2.3.4 6.5 1.3 9.3 2.2zm939.9-1.5c-1 1.6 3.1 8.2 9.1 14.5 6.8 7.3 9.2 11.7 10 18.7.6 5.2.5 5.5-2.7 8.3-4.3 3.5-12.5 7.4-16.4 7.6-3.9.2-10.5-.9-15.2-2.5-4.1-1.4-3.9-.8-5.9-16.1-.3-2.7-1.5-7.3-2.6-10.3-3.7-9.8-.2-15.6 11-18.8 3.1-.8 6.2-1.7 6.7-1.9 2.2-.8 6.6-.4 6 .5z"/></svg>